HIERARCHY
ROOT root
{
	OFFSET	0	13.1	24.9
	CHANNELS 6  Xposition Yposition Zposition Xrotation Yrotation Zrotation
	JOINT spine_1
	{
		OFFSET	0	9.99999	0
		CHANNELS 3  Xrotation Yrotation Zrotation
		JOINT spine_2
		{
			OFFSET	0	112	-10
			CHANNELS 3  Xrotation Yrotation Zrotation
			JOINT spine_3
			{
				OFFSET	0	206.5	19.3
				CHANNELS 3  Xrotation Yrotation Zrotation
				JOINT spine_4
				{
					OFFSET	0	110.4	14.6
					CHANNELS 3  Xrotation Yrotation Zrotation
					JOINT neck_1
					{
						OFFSET	0	71.8	-50.3
						CHANNELS 3  Xrotation Yrotation Zrotation
						JOINT neck_2
						{
							OFFSET	0	86.2	-25.8
							CHANNELS 3  Xrotation Yrotation Zrotation
							JOINT head_ee
							{
								OFFSET	0	179.8	-8.7
								CHANNELS 3  Xrotation Yrotation Zrotation
								End Site
								{
									OFFSET	1	0	0
								}
							}
						}
					}
					JOINT left_clavicle
					{
						OFFSET	-43.2	22.4	-70.8
						CHANNELS 3  Xrotation Yrotation Zrotation
						JOINT left_shoulder
						{
							OFFSET	-93.9	-5.79999	48.7
							CHANNELS 3  Xrotation Yrotation Zrotation
							JOINT left_elbow
							{
								OFFSET	-291.4	-30.8	15.2
								CHANNELS 3  Xrotation Yrotation Zrotation
								JOINT left_lowarm_twist
								{
									OFFSET	-110.7	-3.89999	13.6
									CHANNELS 3  Xrotation Yrotation Zrotation
									JOINT left_hand
									{
										OFFSET	-110.7	-3.89999	13.6
										CHANNELS 3  Xrotation Yrotation Zrotation
										JOINT left_ee
										{
											OFFSET	-80.8	-5.10001	12.1
											CHANNELS 3  Xrotation Yrotation Zrotation
											End Site
											{
												OFFSET	1	0	0
											}
										}
									}
								}
							}
						}
					}
					JOINT right_clavicle
					{
						OFFSET	43.2	22.4	-70.8
						CHANNELS 3  Xrotation Yrotation Zrotation
						JOINT right_shoulder
						{
							OFFSET	93.9	-5.79999	48.7
							CHANNELS 3  Xrotation Yrotation Zrotation
							JOINT right_elbow
							{
								OFFSET	291.4	-30.8	15.2
								CHANNELS 3  Xrotation Yrotation Zrotation
								JOINT right_lowarm_twist
								{
									OFFSET	110.7	-3.89999	13.6
									CHANNELS 3  Xrotation Yrotation Zrotation
									JOINT right_hand
									{
										OFFSET	110.7	-3.89999	13.6
										CHANNELS 3  Xrotation Yrotation Zrotation
										JOINT right_ee
										{
											OFFSET	80.8	-5.10001	12.1
											CHANNELS 3  Xrotation Yrotation Zrotation
											End Site
											{
												OFFSET	1	0	0
											}
										}
									}
								}
							}
						}
					}
				}
			}
		}
	}
	JOINT left_hip
	{
		OFFSET	-82.8	-127.5	0.300001
		CHANNELS 3  Xrotation Yrotation Zrotation
		JOINT left_knee
		{
			OFFSET	-28.2	-396.7	2.2
			CHANNELS 3  Xrotation Yrotation Zrotation
			JOINT left_ankle
			{
				OFFSET	-11.7	-411.3	35.4
				CHANNELS 3  Xrotation Yrotation Zrotation
				JOINT left_toes
				{
					OFFSET	0	-60	-88.6
					CHANNELS 3  Xrotation Yrotation Zrotation
					JOINT left_foot_ee
					{
						OFFSET	-22.5	-16.5	-42.2
						CHANNELS 3  Xrotation Yrotation Zrotation
						End Site
						{
							OFFSET	1	0	0
						}
					}
				}
			}
		}
	}
	JOINT right_hip
	{
		OFFSET	82.8	-127.5	0.300001
		CHANNELS 3  Xrotation Yrotation Zrotation
		JOINT right_knee
		{
			OFFSET	28.2	-396.7	2.2
			CHANNELS 3  Xrotation Yrotation Zrotation
			JOINT right_ankle
			{
				OFFSET	11.7	-411.3	35.4
				CHANNELS 3  Xrotation Yrotation Zrotation
				JOINT right_toes
				{
					OFFSET	0	-60	-88.6
					CHANNELS 3  Xrotation Yrotation Zrotation
					JOINT right_foot_ee
					{
						OFFSET	22.5	-16.5	-42.2
						CHANNELS 3  Xrotation Yrotation Zrotation
						End Site
						{
							OFFSET	1	0	0
						}
					}
				}
			}
		}
	}
}
MOTION
Frames: 12
Frame Time: 0.02
3025.57219508 682.039 -1419.11765464 -157.468862114 64.4281140255 156.54620405 6.82839 0.760553 4.70188 6.84057 0.460163 4.74063 6.86176 0.0233042 4.7628 6.83095 0.774365 4.69963 -13.4524 19.0038 0.109132 -14.5453 36.1572 6.44761 -0.0 0.0 -0.0 -8.76689 15.1696 -12.5762 -33.9058 -26.3026 68.8429 0.904613 -24.1377 0.193422 16.058 0.283685 -2.02496 0.266515 -1.55884 1.12812 -0.0 0.0 -0.0 12.034 7.0402 -24.3088 -0.566632 50.4967 -71.2458 1.0654 27.823 -0.263895 58.6127 1.65199 6.97848 -0.376217 -22.704 -6.88721 0.0 0.0 0.0 6.03275 -1.1418 10.3909 4.58272 -0.215659 -0.669854 36.6065 -7.94556 -4.67675 -34.7637 0.0 0.0 -0.0 0.0 -0.0 26.0894 12.2132 2.29992 -14.7277 -0.321173 -2.23111 22.2938 -2.2722 3.02083 -2.84248 0.0 0.0 0.0 0.0 0.0 
3036.82046075 682.039 -1412.64485745 -159.326248272 62.0635382921 158.625780173 6.82839 0.760553 4.70188 6.84057 0.460163 4.74063 6.86176 0.0233042 4.7628 6.83095 0.774365 4.69963 -13.4524 19.0038 0.109132 -14.5453 36.1572 6.44761 -0.0 0.0 -0.0 -8.76689 15.1696 -12.5762 -33.9058 -26.3026 68.8429 0.904613 -24.1377 0.193422 16.058 0.283685 -2.02496 0.266515 -1.55884 1.12812 -0.0 0.0 -0.0 12.034 7.0402 -24.3088 -0.566632 50.4967 -71.2458 1.0654 27.823 -0.263895 58.6127 1.65199 6.97848 -0.376217 -22.704 -6.88721 0.0 0.0 0.0 6.03275 -1.1418 10.3909 4.58272 -0.215659 -0.669854 36.6065 -7.94556 -4.67675 -34.7637 0.0 0.0 -0.0 0.0 -0.0 26.0894 12.2132 2.29992 -14.7277 -0.321173 -2.23111 22.2938 -2.2722 3.02083 -2.84248 0.0 0.0 0.0 0.0 0.0 
3104.50520606 683.285 -1333.52152224 -168.553420205 41.3747709096 170.024182672 6.54485 0.709215 4.43297 6.55568 0.425985 4.46902 6.57478 -0.00842888 4.48923 6.54734 0.699959 4.43444 -16.5424 16.1313 -1.45234 -17.7395 31.7554 4.88721 -0.0 0.0 -0.0 -11.1302 17.8326 -15.5761 -32.9843 -24.9123 72.0746 0.856385 -22.9878 0.174142 18.9875 0.273764 -2.39895 -0.314877 4.50896 -0.18416 -0.0 0.0 -0.0 10.6714 8.68285 -21.3132 6.55873 48.6453 -70.3824 1.48232 36.2874 -0.485773 62.5942 2.01025 7.34197 2.20957 -11.2928 -19.0997 0.0 0.0 0.0 0.701328 1.10201 10.0076 5.13371 -0.245186 -0.749196 39.0086 -7.07524 -4.8796 -37.034 0.0 0.0 -0.0 0.0 -0.0 39.5039 8.27891 -3.51211 -2.7054 -0.101899 -0.402648 2.46 -0.170127 0.361425 -6.16749 0.0 0.0 0.0 0.0 0.0 
2971.34237729 632.333 -1086.52523372 -171.813860337 39.471679873 170.184791604 3.51995 0.465871 3.88047 3.5283 0.218195 3.9022 3.53938 -0.367717 3.89098 3.51834 0.250924 3.90024 -12.6775 16.3982 -0.325869 -13.3623 31.3867 4.7878 -0.0 0.0 -0.0 -8.50739 23.6654 -9.05777 -26.7188 -20.0513 69.7738 1.06582 -27.8323 0.264091 18.116 0.278713 -2.28775 -0.963931 -2.37753 -7.49754 -0.0 0.0 -0.0 12.3667 22.5005 -24.577 -3.26621 46.6375 -60.5161 1.37138 34.1881 -0.421754 59.8624 1.76169 7.09522 2.63215 -5.49691 -19.9839 0.0 0.0 0.0 -13.3681 -1.1656 11.0004 -5.85023 0.196282 0.875995 34.8673 -15.6121 -4.70138 -35.7025 0.0 0.0 -0.0 0.0 -0.0 38.1628 2.95567 -2.85902 -16.5966 -0.320634 -2.51785 -5.33763 12.6589 -0.847582 0.59795 -0.0 -0.0 0.0 0.0 0.0 
2951.87332961 632.333 -1093.76673017 -171.576888141 41.3774198912 169.81939663 3.51995 0.465871 3.88047 3.5283 0.218195 3.9022 3.53938 -0.367717 3.89098 3.51834 0.250924 3.90024 -12.6775 16.3982 -0.325869 -13.3623 31.3867 4.7878 -0.0 0.0 -0.0 -8.50739 23.6654 -9.05777 -26.7188 -20.0513 69.7738 1.06582 -27.8323 0.264091 18.116 0.278713 -2.28775 -0.963931 -2.37753 -7.49754 -0.0 0.0 -0.0 12.3667 22.5005 -24.577 -3.26621 46.6375 -60.5161 1.37138 34.1881 -0.421754 59.8624 1.76169 7.09522 2.63215 -5.49691 -19.9839 0.0 0.0 0.0 -13.3681 -1.1656 11.0004 -5.85023 0.196282 0.875995 34.8673 -15.6121 -4.70138 -35.7025 0.0 0.0 -0.0 0.0 -0.0 38.1628 2.95567 -2.85902 -16.5966 -0.320634 -2.51785 -5.33763 12.6589 -0.847582 0.59795 -0.0 -0.0 0.0 0.0 0.0 
2934.97396781 632.333 -1100.66729943 -171.348947023 43.0511006733 169.48018728 3.51995 0.465871 3.88047 3.5283 0.218195 3.9022 3.53938 -0.367717 3.89098 3.51834 0.250924 3.90024 -12.6775 16.3982 -0.325869 -13.3623 31.3867 4.7878 -0.0 0.0 -0.0 -8.50739 23.6654 -9.05777 -26.7188 -20.0513 69.7738 1.06582 -27.8323 0.264091 18.116 0.278713 -2.28775 -0.963931 -2.37753 -7.49754 -0.0 0.0 -0.0 12.3667 22.5005 -24.577 -3.26621 46.6375 -60.5161 1.37138 34.1881 -0.421754 59.8624 1.76169 7.09522 2.63215 -5.49691 -19.9839 0.0 0.0 0.0 -13.3681 -1.1656 11.0004 -5.85023 0.196282 0.875995 34.8673 -15.6121 -4.70138 -35.7025 0.0 0.0 -0.0 0.0 -0.0 38.1628 2.95567 -2.85902 -16.5966 -0.320634 -2.51785 -5.33763 12.6589 -0.847582 0.59795 -0.0 -0.0 0.0 0.0 0.0 
2913.26081559 632.333 -1110.40794631 -171.020752859 45.2315500847 169.009022153 3.51995 0.465871 3.88047 3.5283 0.218195 3.9022 3.53938 -0.367717 3.89098 3.51834 0.250924 3.90024 -12.6775 16.3982 -0.325869 -13.3623 31.3867 4.7878 -0.0 0.0 -0.0 -8.50739 23.6654 -9.05777 -26.7188 -20.0513 69.7738 1.06582 -27.8323 0.264091 18.116 0.278713 -2.28775 -0.963931 -2.37753 -7.49754 -0.0 0.0 -0.0 12.3667 22.5005 -24.577 -3.26621 46.6375 -60.5161 1.37138 34.1881 -0.421754 59.8624 1.76169 7.09522 2.63215 -5.49691 -19.9839 0.0 0.0 0.0 -13.3681 -1.1656 11.0004 -5.85023 0.196282 0.875995 34.8673 -15.6121 -4.70138 -35.7025 0.0 0.0 -0.0 0.0 -0.0 38.1628 2.95567 -2.85902 -16.5966 -0.320634 -2.51785 -5.33763 12.6589 -0.847582 0.59795 -0.0 -0.0 0.0 0.0 0.0 
2884.34297721 632.333 -1124.99392466 -170.508943947 48.1957952974 168.30616587 3.51995 0.465871 3.88047 3.5283 0.218195 3.9022 3.53938 -0.367717 3.89098 3.51834 0.250924 3.90024 -12.6775 16.3982 -0.325869 -13.3623 31.3867 4.7878 -0.0 0.0 -0.0 -8.50739 23.6654 -9.05777 -26.7188 -20.0513 69.7738 1.06582 -27.8323 0.264091 18.116 0.278713 -2.28775 -0.963931 -2.37753 -7.49754 -0.0 0.0 -0.0 12.3667 22.5005 -24.577 -3.26621 46.6375 -60.5161 1.37138 34.1881 -0.421754 59.8624 1.76169 7.09522 2.63215 -5.49691 -19.9839 0.0 0.0 0.0 -13.3681 -1.1656 11.0004 -5.85023 0.196282 0.875995 34.8673 -15.6121 -4.70138 -35.7025 0.0 0.0 -0.0 0.0 -0.0 38.1628 2.95567 -2.85902 -16.5966 -0.320634 -2.51785 -5.33763 12.6589 -0.847582 0.59795 -0.0 -0.0 0.0 0.0 0.0 
2866.96964617 632.333 -1134.69965648 -170.151054037 50.0147032895 167.832773113 3.51995 0.465871 3.88047 3.5283 0.218195 3.9022 3.53938 -0.367717 3.89098 3.51834 0.250924 3.90024 -12.6775 16.3982 -0.325869 -13.3623 31.3867 4.7878 -0.0 0.0 -0.0 -8.50739 23.6654 -9.05777 -26.7188 -20.0513 69.7738 1.06582 -27.8323 0.264091 18.116 0.278713 -2.28775 -0.963931 -2.37753 -7.49754 -0.0 0.0 -0.0 12.3667 22.5005 -24.577 -3.26621 46.6375 -60.5161 1.37138 34.1881 -0.421754 59.8624 1.76169 7.09522 2.63215 -5.49691 -19.9839 0.0 0.0 0.0 -13.3681 -1.1656 11.0004 -5.85023 0.196282 0.875995 34.8673 -15.6121 -4.70138 -35.7025 0.0 0.0 -0.0 0.0 -0.0 38.1628 2.95567 -2.85902 -16.5966 -0.320634 -2.51785 -5.33763 12.6589 -0.847582 0.59795 -0.0 -0.0 0.0 0.0 0.0 
2839.49830887 632.333 -1151.60557362 -169.486576078 52.9585966491 166.983846181 3.51995 0.465871 3.88047 3.5283 0.218195 3.9022 3.53938 -0.367717 3.89098 3.51834 0.250924 3.90024 -12.6775 16.3982 -0.325869 -13.3623 31.3867 4.7878 -0.0 0.0 -0.0 -8.50739 23.6654 -9.05777 -26.7188 -20.0513 69.7738 1.06582 -27.8323 0.264091 18.116 0.278713 -2.28775 -0.963931 -2.37753 -7.49754 -0.0 0.0 -0.0 12.3667 22.5005 -24.577 -3.26621 46.6375 -60.5161 1.37138 34.1881 -0.421754 59.8624 1.76169 7.09522 2.63215 -5.49691 -19.9839 0.0 0.0 0.0 -13.3681 -1.1656 11.0004 -5.85023 0.196282 0.875995 34.8673 -15.6121 -4.70138 -35.7025 0.0 0.0 -0.0 0.0 -0.0 38.1628 2.95567 -2.85902 -16.5966 -0.320634 -2.51785 -5.33763 12.6589 -0.847582 0.59795 -0.0 -0.0 0.0 0.0 0.0 
2816.53012043 632.333 -1167.3287425 -168.812186528 55.4933278327 166.152838404 3.51995 0.465871 3.88047 3.5283 0.218195 3.9022 3.53938 -0.367717 3.89098 3.51834 0.250924 3.90024 -12.6775 16.3982 -0.325869 -13.3623 31.3867 4.7878 -0.0 0.0 -0.0 -8.50739 23.6654 -9.05777 -26.7188 -20.0513 69.7738 1.06582 -27.8323 0.264091 18.116 0.278713 -2.28775 -0.963931 -2.37753 -7.49754 -0.0 0.0 -0.0 12.3667 22.5005 -24.577 -3.26621 46.6375 -60.5161 1.37138 34.1881 -0.421754 59.8624 1.76169 7.09522 2.63215 -5.49691 -19.9839 0.0 0.0 0.0 -13.3681 -1.1656 11.0004 -5.85023 0.196282 0.875995 34.8673 -15.6121 -4.70138 -35.7025 0.0 0.0 -0.0 0.0 -0.0 38.1628 2.95567 -2.85902 -16.5966 -0.320634 -2.51785 -5.33763 12.6589 -0.847582 0.59795 -0.0 -0.0 0.0 0.0 0.0 
2792.48878495 632.333 -1185.49892738 -167.949998397 58.2303698097 165.123483609 3.51995 0.465871 3.88047 3.5283 0.218195 3.9022 3.53938 -0.367717 3.89098 3.51834 0.250924 3.90024 -12.6775 16.3982 -0.325869 -13.3623 31.3867 4.7878 -0.0 0.0 -0.0 -8.50739 23.6654 -9.05777 -26.7188 -20.0513 69.7738 1.06582 -27.8323 0.264091 18.116 0.278713 -2.28775 -0.963931 -2.37753 -7.49754 -0.0 0.0 -0.0 12.3667 22.5005 -24.577 -3.26621 46.6375 -60.5161 1.37138 34.1881 -0.421754 59.8624 1.76169 7.09522 2.63215 -5.49691 -19.9839 0.0 0.0 0.0 -13.3681 -1.1656 11.0004 -5.85023 0.196282 0.875995 34.8673 -15.6121 -4.70138 -35.7025 0.0 0.0 -0.0 0.0 -0.0 38.1628 2.95567 -2.85902 -16.5966 -0.320634 -2.51785 -5.33763 12.6589 -0.847582 0.59795 -0.0 -0.0 0.0 0.0 0.0 
